<svg width="1462" height="2970" viewBox="0 0 1462 2970" fill="none" xmlns="http://www.w3.org/2000/svg">
<path d="M812.561 115.057C494.956 35.0225 347.587 43.3658 0 143.383V277H1462V115.057C1201.46 197.812 1170.08 191.135 817.3 116.065L812.561 115.057Z" fill="#D3E7F3"/>
<path d="M812.561 135.057C494.956 55.0225 347.587 63.3658 0 163.383V297H1462V135.057C1201.46 217.812 1170.08 211.135 817.3 136.065L812.561 135.057Z" fill="#A8CCE2"/>
<path d="M812.561 152.547C494.956 73.2674 347.587 81.5321 0 180.606V2920H1462V152.547C1201.46 234.522 1170.08 227.908 817.3 153.546L812.561 152.547Z" fill="url(#paint0_linear_960_419)"/>
<path d="M843.711 2860.99C1116.14 2915.46 1247.32 2908.09 1462 2860.99V2959.04H0V2860.99C290.372 2804.61 471.355 2799.21 843.711 2860.99Z" fill="#AAD0E7"/>
<path d="M843.711 2850.48C1116.14 2904.96 1247.32 2897.59 1462 2850.48V2948.53H0V2850.48C290.372 2794.11 471.355 2788.71 843.711 2850.48Z" fill="white" fill-opacity="0.48"/>
<path d="M843.711 2871.1C1116.14 2925.57 1247.32 2918.2 1462 2871.1V2969.15H0V2871.1C290.372 2814.72 471.355 2809.32 843.711 2871.1Z" fill="white"/>
<circle cx="1230.34" cy="153.499" r="137.632" transform="rotate(-172.943 1230.34 153.499)" fill="#EBC803"/>
<circle cx="1230.34" cy="153.498" r="77.074" transform="rotate(-172.943 1230.34 153.498)" fill="white"/>
<defs>
<linearGradient id="paint0_linear_960_419" x1="-440.991" y1="5236.82" x2="2144.75" y2="1248.8" gradientUnits="userSpaceOnUse">
<stop stop-color="#2F3161"/>
<stop offset="1" stop-color="#66C2ED"/>
</linearGradient>
</defs>
</svg>
